<svg xmlns="http://www.w3.org/2000/svg" data-name="Layer 1" viewBox="0 0 100 100" x="0px" y="0px"><defs><style>.cls-1{fill:none;}</style></defs><path class="cls-1" d="M81.93,26.34c-8.45-5.87-19.79-9.1-31.93-9.1H49.59c-12.12,0-23.89,3.48-32.31,9.55-5.57,4-9,8.51-10.46,13.71v0.09a19,19,0,0,0-.66,3.15l-0.06.53L6,44.51v2.55l0,0.19,0,0.4c0.5,5.49,3.47,10.77,8.58,15.28l1.48,1.31,0.42,1.93a8.38,8.38,0,0,1,0,3.26c-0.62,3.46-1.23,7-1.83,10.42,5.87-2.06,11.92-4.18,17.89-6.24a10.82,10.82,0,0,1,1.19-.33L35.13,73l1.28,0.28A64.54,64.54,0,0,0,50,74.7c12.14,0,23.48-3.23,31.93-9.1C89.71,60.19,94,53.22,94,46S89.71,31.74,81.93,26.34Z"/><path d="M50,11.24H49.59c-13,0-26,3.62-35.82,10.69C7.5,26.45,3,32,1,38.88A24.93,24.93,0,0,0,.18,43C0.13,43.2.06,43.38,0,43.56v4.18L0.11,48.2C0.77,55.44,4.62,62.07,10.7,67.44a2.39,2.39,0,0,1,0,.93C9.57,74.6,8.51,80.84,7.44,87.09c-0.08.48-.13,1-0.23,1.68,0.67-.19,1.17-0.31,1.64-0.48,8.59-3,17.16-6,25.76-9a4.94,4.94,0,0,1,.54-0.15A70.51,70.51,0,0,0,50,80.7c27.61,0,50-15.55,50-34.73S77.61,11.24,50,11.24ZM81.93,65.6C73.48,71.46,62.14,74.7,50,74.7a64.54,64.54,0,0,1-13.58-1.42L35.13,73l-1.28.29a10.82,10.82,0,0,0-1.19.33c-6,2.06-12,4.18-17.89,6.24,0.6-3.46,1.21-7,1.83-10.42a8.38,8.38,0,0,0,0-3.26l-0.42-1.93-1.48-1.31c-5.11-4.51-8.08-9.8-8.58-15.28l0-.4,0-.19V44.51l0.07-.24,0.06-.53a19,19,0,0,1,.66-3.15V40.5c1.46-5.2,4.88-9.69,10.46-13.71,8.41-6.07,20.19-9.55,32.31-9.55H50c12.14,0,23.48,3.23,31.93,9.1C89.71,31.74,94,38.71,94,46S89.71,60.19,81.93,65.6Z"/></svg>
